<!DOCTYPE svg PUBLIC "-//W3C//DTD SVG 1.1//EN" "http://www.w3.org/Graphics/SVG/1.1/DTD/svg11.dtd">
<!-- Uploaded to: SVG Repo, www.svgrepo.com, Transformed by: SVG Repo Mixer Tools -->
<svg height="64px" width="64px" version="1.1" id="Layer_1" xmlns="http://www.w3.org/2000/svg" xmlns:xlink="http://www.w3.org/1999/xlink" viewBox="0 0 512.00 512.00" xml:space="preserve" fill="#000000">
<g id="SVGRepo_bgCarrier" stroke-width="0"/>
<g id="SVGRepo_tracerCarrier" stroke-linecap="round" stroke-linejoin="round"/>
<g id="SVGRepo_iconCarrier"> <path style="fill:#895F3A;" d="M294.957,239.304H150.261c-9.217,0-16.696-7.473-16.696-16.696v-33.391 c0-27.619,22.468-50.087,50.087-50.087h77.913c27.619,0,50.087,22.468,50.087,50.087v33.391 C311.652,231.831,304.174,239.304,294.957,239.304z"/> <path style="fill:#7D4C30;" d="M261.565,139.13h-38.957v100.174h72.348c9.217,0,16.696-7.473,16.696-16.696v-33.391 C311.652,161.598,289.184,139.13,261.565,139.13z"/> <path style="fill:#575771;" d="M361.739,264.81c-9.217,0-16.696-7.473-16.696-16.696V122.435c0-46.032-37.446-83.478-83.478-83.478 h-77.913c-46.032,0-83.478,37.446-83.478,83.478v125.679c0,9.223-7.479,16.696-16.696,16.696s-16.696-7.473-16.696-16.696V122.435 c0-64.441,52.424-116.87,116.87-116.87h77.913c64.445,0,116.87,52.429,116.87,116.87v125.679 C378.435,257.337,370.956,264.81,361.739,264.81z"/> <path style="fill:#494965;" d="M261.565,5.565h-38.957v33.391h38.957c46.032,0,83.478,37.446,83.478,83.478v125.679 c0,9.223,7.479,16.696,16.696,16.696c9.217,0,16.696-7.473,16.696-16.696V122.435C378.435,57.994,326.01,5.565,261.565,5.565z"/> <path style="fill:#7D4C30;" d="M495.304,205.913c-64.445,0-116.87,52.429-116.87,116.87l-25.163,134.581 c0.707,8.734,8.011,15.348,16.62,15.348c0.456,0,0.913-0.017,1.369-0.055c60.196-4.885,107.347-56.048,107.347-116.483v-33.391 c0-9.206,7.49-16.696,16.696-16.696c9.217,0,16.696-7.473,16.696-16.696v-66.783C512,213.386,504.521,205.913,495.304,205.913z"/> <path style="fill:#966C46;" d="M294.957,205.913H150.261c-64.445,0-116.87,52.429-116.87,116.87l61.217,183.652h200.348 c64.445,0,116.87-52.429,116.87-116.87v-66.783C411.826,258.342,359.402,205.913,294.957,205.913z"/> <path style="fill:#895F3A;" d="M294.957,205.913h-72.348v300.522h72.348c64.445,0,116.87-52.429,116.87-116.87v-66.783 C411.826,258.342,359.402,205.913,294.957,205.913z"/> <path style="fill:#EBE2E2;" d="M150.261,506.435H83.478C37.446,506.435,0,468.989,0,422.957V322.783 c0-9.223,7.479-16.696,16.696-16.696h200.348c9.217,0,16.696,7.473,16.696,16.696v100.174 C233.739,468.989,196.293,506.435,150.261,506.435z"/> <path style="fill:#DCCACA;" d="M217.043,306.087H116.87v200.348h33.391c46.032,0,83.478-37.446,83.478-83.478V322.783 C233.739,313.56,226.261,306.087,217.043,306.087z"/> </g>
</svg>